Patient4_TMGait_0pt2_03_left_09_EMG.mot
version=1
nRows=23
nColumns=33
inDegrees=no
endheader
time	1LAddLong	2LGlutMax	3LGlutMed	4LIliopsoas	5LSemiMemb	6LBicFemLong	7LRecFem	8LVastMed	9LVastLat	10LGasMed	11LTibAnt	12lTibPost	13LPeroneusLong	14LSol	15LExtDigLong	16LFlexDigLong	17RAddLong	18RGlutMax	19RGlutMed	20RIliopsoas	21RSemiMemb	22RBicFemLong	23RRecFem	24RVastMed	25RVastLat	26RGasMed	27RTibAnt	28RTibPost	29RPeroneusLong	30RSol	31RExtDigLong	32RFlexDigLong
20.3	0.006866	-0.087433	0.10559	-0.005493	0.018616	-0.007477	-0.015564	0.002136	-0.021973	-0.016327	0.061951	-0.003204	-0.017853	-0.062103	-0.006256	0.018463	-0.033264	-0.032959	-0.12863	-0.065155	0.11169	0.060425	0.41153	-0.007782	-0.26871	-0.010376	0.017242	-0.010071	0.63644	0.081177	0.000916	-0.015717
20.301	0.005341	-0.071869	0.065918	0.015259	0.021515	-0.00946	-0.023804	-0.00351	-0.015564	0.016022	0.066376	0.000153	-0.018768	-0.09491	0.043488	0.021057	-0.060425	-0.028534	-0.3244	-0.012665	-0.18601	0.19867	0.58151	0.67993	-0.55176	-0.013885	0.065918	-0.005646	-0.039215	0.13336	0.000916	-0.009766
20.302	0.007019	-0.09201	0.014648	0.036011	0.023804	-0.001678	-0.022125	0.001678	-0.013275	-0.000763	0.045776	-0.007172	-0.00351	-0.064392	0.050964	0.011902	0.010834	0.013428	0.27252	0.000458	-0.083466	0.12848	0.96954	1.0817	-0.93994	-0.010986	0.005798	-0.005188	0.15839	-0.11475	-0.005493	-0.00412
20.303	0.006256	-0.054626	-0.010986	0.037689	0.022583	-0.006256	-0.025787	-0.005035	-0.014496	-0.010529	0.029907	0.001068	-0.019836	-0.057831	0.033875	0.016785	0.059662	0.076904	0.14023	0	-0.03479	0.075378	0.88837	0.83237	-1.0223	-0.007324	-0.010376	-0.01297	-1.255	-0.17578	-0.002136	-0.007629
20.304	0.004272	-0.065613	0.006866	0.029602	0.025482	0.006409	-0.019684	-0.007019	-0.014343	-0.011139	0.016327	0.003967	-0.019531	-0.049744	0.037231	0.012817	0.081329	-0.014038	-0.33524	0.003815	-0.075836	0.057831	0.29648	0.1326	-0.6247	-0.002289	0.075226	-0.014191	-0.33218	-0.15137	0.000305	-0.004272
20.305	-0.001984	-0.041504	0.056915	0.018158	0.014648	0.00351	-0.011749	-0.005341	-0.017395	-0.010681	0.00885	-0.007782	-0.023956	-0.006561	0.028381	0.023346	0.11566	0.011749	-0.039215	-0.024414	-0.23499	-0.032654	0.037537	-0.43076	-0.069885	-0.007935	0.13733	-0.021973	0.91324	0.041809	-0.001526	-0.011597
20.306	0.006561	-0.05127	0.010681	-0.000458	0.016785	0.014496	-0.009003	0.000763	-0.023651	-0.013275	-0.004578	0.000153	-0.027313	-0.037842	0.02121	0.005188	0.057068	0.05188	0.55222	-0.11749	-0.22247	0.082397	-0.21774	-0.51636	0.29984	-0.012207	0.10101	-0.003357	1.1461	0.057373	-0.000916	-0.016174
20.307	0.00351	-0.045013	-0.046082	-0.003967	0.020294	0.009155	-0.003204	0.001373	-0.029755	-0.014801	0.009003	-0.002747	-0.029755	-0.037079	0.084229	0.014038	0.013428	0.12024	-0.49789	-0.11459	0.65231	0.19684	-0.21835	-0.66315	0.62759	-0.006561	0.00061	-0.003357	0.58762	-0.029907	0.000763	-0.018311
20.308	0.011749	-0.027313	-0.067291	-0.004272	0.019836	0.003662	-0.009003	0.000153	-0.02655	-0.008698	0.013123	-0.00473	-0.035095	-0.015564	0.081024	0.011292	0.044708	0.14435	-1.2581	0.055084	0.37445	0.13901	-0.064392	-0.72342	0.50079	0.008087	-0.052643	-0.003357	0.81375	-0.10178	-0.001221	-0.011902
20.309	0.001831	0.00061	-0.027466	-0.008392	0.018005	-0.002594	-0.001068	0.000763	-0.010986	-0.016632	-0.005035	-0.008545	-0.030365	-0.023651	0.034485	0.019836	-0.04715	0.15167	-0.41824	0.15488	0.012207	0.085297	-0.22415	0.054169	0.44754	-0.005035	-0.10849	-0.001068	0.14374	-0.037994	0.004883	-0.004883
20.31	0.009918	-0.0383	-0.00824	-0.010376	0.016785	0.004883	0.01358	-0.00061	-0.009003	-0.033417	-0.010834	-0.006714	-0.023804	-0.005341	0.032806	0.014954	-0.058594	0.17853	0.26123	-0.027008	-0.16342	0.14358	-0.65781	0.31906	0.43396	-0.019684	-0.050964	-0.002136	-1.7552	0.1059	-0.001221	-0.014343
20.311	0.00351	-0.037079	0.075073	-0.001526	0.009308	0.003357	0.011292	0.008087	-0.009766	-0.03006	-0.00351	-0.010834	-0.024872	-0.018616	0.02655	0.003662	-0.018616	0.037079	0.32669	-0.15778	-0.5571	0.19562	-0.67917	0.14694	0.1886	-0.027924	-0.027008	-0.010681	-1.516	0.056915	-0.000916	-0.010376
20.312	0.014343	-0.048981	-0.0177	0.008698	0.014648	0.003052	0.031891	0.00351	-0.008087	-0.026855	0.000763	-0.005035	-0.00946	-0.064545	0.026855	-0.002441	-0.075226	-0.007782	0.22079	-0.15091	0.003815	0.036926	-0.26733	0.36621	-0.071716	-0.019989	-0.11261	-0.009766	-0.18234	0.020905	-0.010071	-0.009766
20.313	-0.001984	-0.074921	-0.049744	0.00473	0.020294	-0.00473	0.029755	-0.000916	-0.01297	-0.011597	0.000916	-0.000916	-0.034943	-0.037231	0.008698	0.000153	-0.11124	-0.10086	0.1207	0.038147	0.38498	-0.15106	-0.074463	0.37384	-0.13794	-0.002899	-0.12711	-0.006409	0.63248	0.004883	-0.003815	-0.004578
20.314	-0.003357	-0.046692	0.071259	0.008545	0.023499	-0.033569	0.028839	-0.00885	-0.013428	-0.016937	0.005798	-0.001373	-0.030823	-0.068817	0.002899	0.002747	-0.077362	-0.071106	0.62241	0.070496	0.27771	-0.21774	-0.18387	-0.14877	-0.048676	-0.003357	-0.087738	-0.007629	0.94894	0.023651	0.000305	-0.001831
20.315	0.001373	-0.027618	0.08606	0.048065	0.022583	-0.018463	0.016479	-0.021057	-0.014801	-0.017853	0.006714	-0.003052	-0.02655	-0.036316	-0.00061	0.005951	-0.066833	0.048676	0.8493	-0.026245	0.52704	-0.17059	-0.26062	-0.32425	0.062714	-0.016937	-0.061951	-0.007935	0.59372	0.1294	-0.002594	-0.003052
20.316	0.00473	-0.072174	0.047302	0.020752	0.031281	-0.013275	0.013428	0.013123	-0.024567	-0.028534	0.00351	-0.005951	-0.028381	-0.02655	0.001526	0.014801	-0.032654	-0.047607	0.21866	-0.000916	0.19821	-0.10712	-0.38605	-0.40085	-0.01358	-0.015564	-0.066376	-0.006256	0.4071	0.036469	-0.001678	-0.007629
20.317	0.00061	-0.060272	0.076752	-0.003052	0.021667	-0.019836	0.030365	0.001221	-0.032349	-0.020752	0.008087	-0.005493	-0.01709	-0.045471	-0.003967	0.015411	0.018921	-0.034027	-0.1149	-0.00473	0.04425	-0.036011	-0.25818	-0.42343	-0.11902	-0.01297	-0.038757	-0.003052	0.27206	-0.007935	0.000305	-0.011292
20.318	0.002747	-0.039825	0.045166	-0.009003	0.021667	0.001373	0.019379	0.001221	-0.034027	-0.024567	-0.000458	-0.009308	0.000916	-0.056915	-0.032959	0.023193	0.051117	-0.028992	0.2243	-0.019226	-0.06897	-0.026245	0.060272	-0.14938	-0.25238	-0.010986	-0.030212	-0.011292	0.22919	-0.036011	-0.001831	-0.00946
20.319	0.00885	-0.056	-0.013733	0.027618	0.021973	0.020294	0.036163	0.003662	-0.032196	-0.047607	0.001831	-0.002289	-0.012817	-0.034637	-0.019531	0.007629	0.059509	0.007782	0.59341	0.015259	-0.056152	0.16632	0.11932	0.56763	-0.19669	-0.002899	0.012512	-0.004425	0.062714	-0.03006	-0.00061	-0.01297
20.32	0.001526	-0.053864	-0.047913	0.037231	0.016632	0.03952	0.017395	-0.001831	-0.030518	-0.065155	0.006256	-0.002136	-0.006561	-0.054321	-0.009918	0.011749	0.044861	0.042877	0.54398	-0.012054	0.12787	0.21255	0.11673	0.64362	-0.12817	0.003052	0.046539	-0.004578	-0.10376	-0.004578	0.002136	-0.016479
20.321	-0.005188	-0.07431	0.014801	0.044098	0.023804	0.023499	0.033264	0.001068	-0.028229	-0.050354	0.002899	-0.005493	-0.026245	-0.049896	0.010529	0.021973	-0.008545	-0.018463	-0.47394	0.051727	0.12299	0.056305	0.21683	0.21271	-0.15488	0.012665	0.061951	-0.004425	-0.25925	-0.007782	-0.003357	-0.010376
20.322	0.001221	-0.073395	0.019531	0.026245	0.023804	0.018768	0.019989	0.000153	-0.026703	-0.026703	0.003357	-0.009308	-0.047455	-0.031586	0.042725	0.005798	-0.010529	0.023956	-1.2914	0.11826	0.20325	-0.093689	0.32272	-0.12482	-0.070648	0.012207	0.026245	-0.00351	-0.080719	0.001526	0.000916	-0.00412
